<mxfile host="65bd71144e">
    <diagram id="PkXtOsccsb5lSiSgQKMI" name="Page-1">
        <mxGraphModel dx="292" dy="235" grid="1" gridSize="10" guides="1" tooltips="1" connect="1" arrows="1" fold="1" page="1" pageScale="1" pageWidth="850" pageHeight="1100" math="0" shadow="0">
            <root>
                <mxCell id="0"/>
                <mxCell id="1" parent="0"/>
                <mxCell id="6" value="" style="shape=actor;whiteSpace=wrap;html=1;" parent="1" vertex="1">
                    <mxGeometry x="80" y="170" width="40" height="60" as="geometry"/>
                </mxCell>
                <mxCell id="9" value="User" style="text;html=1;align=center;verticalAlign=middle;whiteSpace=wrap;rounded=0;" parent="1" vertex="1">
                    <mxGeometry x="70" y="230" width="60" height="30" as="geometry"/>
                </mxCell>
                <mxCell id="10" value="" style="endArrow=classic;html=1;exitX=1;exitY=0.75;exitDx=0;exitDy=0;entryX=0.005;entryY=0.551;entryDx=0;entryDy=0;entryPerimeter=0;" parent="1" source="6" edge="1">
                    <mxGeometry width="50" height="50" relative="1" as="geometry">
                        <mxPoint x="360" y="280" as="sourcePoint"/>
                        <mxPoint x="279.5999999999999" y="216.12" as="targetPoint"/>
                    </mxGeometry>
                </mxCell>
                <mxCell id="13" value="" style="edgeStyle=none;html=1;" parent="1" source="11" target="12" edge="1">
                    <mxGeometry relative="1" as="geometry"/>
                </mxCell>
                <mxCell id="11" value="&lt;b&gt;&lt;font style=&quot;font-size: 14px;&quot;&gt;&lt;span style=&quot;color: rgb(0, 0, 0);&quot;&gt;MarkitDown CLI&lt;/span&gt;&lt;/font&gt;&lt;/b&gt;&lt;div&gt;&lt;font style=&quot;color: rgb(24, 20, 29);&quot;&gt;&lt;br&gt;&lt;/font&gt;&lt;div&gt;&lt;span style=&quot;letter-spacing: 0.32px; text-align: start; white-space-collapse: preserve-breaks;&quot;&gt;&lt;font face=&quot;Helvetica&quot; style=&quot;color: rgb(24, 20, 29); font-size: 14px;&quot;&gt;MarkItDown converts files to Markdown for LLMs, focusing on structural fidelity. Like textract, but optimized for machine-readability over human presentation.&lt;/font&gt;&lt;/span&gt;&lt;/div&gt;&lt;/div&gt;" style="rounded=1;whiteSpace=wrap;html=1;" parent="1" vertex="1">
                    <mxGeometry x="280" y="137.5" width="290" height="165" as="geometry"/>
                </mxCell>
                <mxCell id="12" value="&lt;b&gt;MarkDown Document&amp;nbsp;&lt;/b&gt;" style="shape=document;whiteSpace=wrap;html=1;boundedLbl=1;" parent="1" vertex="1">
                    <mxGeometry x="640" y="180" width="120" height="80" as="geometry"/>
                </mxCell>
                <mxCell id="16" value="A file will be provided by the user." style="text;html=1;align=center;verticalAlign=middle;whiteSpace=wrap;rounded=0;" parent="1" vertex="1">
                    <mxGeometry x="130" y="185" width="140" height="30" as="geometry"/>
                </mxCell>
                <mxCell id="20" value="&lt;b style=&quot;text-align: left;&quot;&gt;Document Supported&lt;br&gt;&lt;ul&gt;&lt;li&gt;&lt;b&gt;Audio&lt;/b&gt;&lt;/li&gt;&lt;li&gt;&lt;b&gt;CSV&lt;/b&gt;&lt;/li&gt;&lt;li&gt;&lt;b&gt;Doc&lt;/b&gt;&lt;/li&gt;&lt;li&gt;&lt;b&gt;Docx&lt;/b&gt;&lt;/li&gt;&lt;li&gt;&lt;b&gt;Epub&lt;/b&gt;&lt;/li&gt;&lt;li&gt;&lt;b&gt;Html&lt;/b&gt;&lt;/li&gt;&lt;li&gt;&lt;b&gt;Image&lt;/b&gt;&lt;/li&gt;&lt;li&gt;&lt;b&gt;Ipynb&lt;/b&gt;&lt;/li&gt;&lt;li&gt;&lt;b&gt;ZIP&lt;/b&gt;&lt;/li&gt;&lt;/ul&gt;&lt;/b&gt;" style="text;html=1;align=center;verticalAlign=middle;whiteSpace=wrap;rounded=0;" parent="1" vertex="1">
                    <mxGeometry y="270" width="155" height="250" as="geometry"/>
                </mxCell>
                <mxCell id="23" value="&lt;ul style=&quot;color: rgb(63, 63, 63); font-weight: 700; text-align: left;&quot;&gt;&lt;li&gt;&lt;b&gt;Outlook-Msg&lt;/b&gt;&lt;/li&gt;&lt;li&gt;&lt;b&gt;PDF&lt;/b&gt;&lt;/li&gt;&lt;li&gt;&lt;b&gt;Plain Text&lt;/b&gt;&lt;/li&gt;&lt;li&gt;&lt;b&gt;PPTX&lt;/b&gt;&lt;/li&gt;&lt;li&gt;&lt;b&gt;RSS&lt;/b&gt;&lt;/li&gt;&lt;li&gt;&lt;b&gt;Transcribe Audio&lt;/b&gt;&lt;/li&gt;&lt;li&gt;&lt;b&gt;Wikipedia&lt;/b&gt;&lt;/li&gt;&lt;li&gt;&lt;b&gt;XLSX&lt;/b&gt;&lt;/li&gt;&lt;li&gt;&lt;b&gt;Youtube&lt;/b&gt;&lt;/li&gt;&lt;/ul&gt;" style="text;html=1;align=center;verticalAlign=middle;whiteSpace=wrap;rounded=0;" parent="1" vertex="1">
                    <mxGeometry x="90" y="300" width="150" height="210" as="geometry"/>
                </mxCell>
                <mxCell id="25" value="" style="rounded=1;whiteSpace=wrap;html=1;fillColor=none;" parent="1" vertex="1">
                    <mxGeometry y="270" width="250" height="240" as="geometry"/>
                </mxCell>
            </root>
        </mxGraphModel>
    </diagram>
</mxfile>